<svg width="117" height="27" viewBox="0 0 117 27" fill="none" xmlns="http://www.w3.org/2000/svg">
<path fill-rule="evenodd" clip-rule="evenodd" d="M47.4414 3.83494C46.2312 2.6203 44.7929 1.65677 43.2092 0.99969C41.6255 0.342615 39.9275 0.00495372 38.2129 0.00610646H38.1947C35.1721 0.00739462 32.2433 1.05659 29.9075 2.97495C27.5716 4.89332 25.9731 7.56219 25.3842 10.5269C24.7953 13.4917 25.2525 16.5689 26.6779 19.2343C28.1033 21.8998 30.4087 23.9886 33.2014 25.145C35.9941 26.3014 39.1013 26.4538 41.9938 25.5763C44.8863 24.6987 47.385 22.8455 49.0644 20.3323C50.7438 17.8191 51.4999 14.8014 51.204 11.7933C50.9081 8.78518 49.5784 5.97269 47.4414 3.83494ZM43.7397 18.6146C42.6433 19.7108 41.2465 20.4574 39.7259 20.7598C38.2052 21.0622 36.6291 20.9069 35.1967 20.3135C33.7643 19.7202 32.54 18.7154 31.6786 17.4263C30.8173 16.1371 30.3575 14.6215 30.3575 13.0711C30.3575 11.5206 30.8173 10.005 31.6786 8.71588C32.54 7.42673 33.7643 6.42195 35.1967 5.82859C36.6291 5.23523 38.2052 5.07994 39.7259 5.38236C41.2465 5.68477 42.6433 6.43131 43.7397 7.52758C44.4677 8.25553 45.0453 9.11976 45.4393 10.0709C45.8333 11.0221 46.0361 12.0415 46.0361 13.0711C46.0361 14.1006 45.8333 15.1201 45.4393 16.0712C45.0453 17.0224 44.4677 17.8866 43.7397 18.6146Z" fill="#0B5CFF"/>
<path fill-rule="evenodd" clip-rule="evenodd" d="M74.8781 3.8349C73.0516 2.00531 70.7234 0.758654 68.1882 0.252692C65.6529 -0.253271 63.0246 0.0042004 60.6357 0.992522C58.2468 1.98084 56.2048 3.65559 54.7681 5.80484C53.3313 7.95409 52.5645 10.4812 52.5645 13.0665C52.5645 15.6517 53.3313 18.1789 54.7681 20.3281C56.2048 22.4774 58.2468 24.1521 60.6357 25.1404C63.0246 26.1288 65.6529 26.3862 68.1882 25.8803C70.7234 25.3743 73.0516 24.1276 74.8781 22.2981C76.0927 21.087 77.0564 19.6482 77.714 18.0641C78.3715 16.48 78.7099 14.7817 78.7099 13.0665C78.7099 11.3513 78.3715 9.65298 77.714 8.06885C77.0564 6.48472 76.0927 5.04592 74.8781 3.8349ZM71.1825 18.6145C70.0861 19.7108 68.6892 20.4573 67.1686 20.7597C65.6479 21.0621 64.0718 20.9068 62.6394 20.3135C61.207 19.7201 59.9827 18.7153 59.1214 17.4262C58.26 16.1371 57.8003 14.6214 57.8003 13.071C57.8003 11.5206 58.26 10.005 59.1214 8.71583C59.9827 7.42669 61.207 6.42191 62.6394 5.82855C64.0718 5.23519 65.6479 5.0799 67.1686 5.38231C68.6892 5.68473 70.0861 6.43127 71.1825 7.52753C72.652 8.99809 73.4775 10.992 73.4775 13.071C73.4775 15.15 72.652 17.1439 71.1825 18.6145Z" fill="#0B5CFF"/>
<path fill-rule="evenodd" clip-rule="evenodd" d="M5.54155 26.0693L6.84911 26.1359H26.4473L26.3807 24.8314C26.2052 22.6794 24.6827 21.1115 22.5277 20.9753L21.2201 20.9087H9.46119L25.1397 5.2332L25.0732 3.92867C25.0531 2.91279 24.6408 1.94408 23.9226 1.22532C23.2044 0.506565 22.236 0.0934988 21.2201 0.0725946L19.9126 0.0090332H0.317383L0.380951 1.31659C0.429439 2.32283 0.850946 3.27495 1.56329 3.98729C2.27564 4.69964 3.22775 5.12115 4.234 5.16964L5.54155 5.23623H17.3005L1.62494 20.9118L1.68851 22.2193C1.72464 23.2294 2.14227 24.1883 2.85725 24.9027C3.57224 25.6171 4.53143 26.034 5.54155 26.0693Z" fill="#0B5CFF"/>
<path fill-rule="evenodd" clip-rule="evenodd" d="M94.9814 7.83618C95.4039 8.6451 95.6231 9.54474 95.6201 10.4573L95.6866 11.7649V20.9087L95.7532 22.2163C95.7914 23.226 96.2096 24.184 96.9241 24.8984C97.6386 25.6129 98.5966 26.0311 99.6063 26.0693L100.911 26.1359V11.7649L100.977 10.4573C100.978 9.54154 101.199 8.63932 101.622 7.82711C102.083 7.0364 102.744 6.38069 103.538 5.92556C104.333 5.47043 105.232 5.23185 106.148 5.23369C107.063 5.23553 107.962 5.47772 108.754 5.93604C109.547 6.39435 110.205 7.05272 110.663 7.84527C111.079 8.65315 111.297 9.54854 111.299 10.4573L111.365 11.7649V20.9087L111.429 22.2163C111.465 23.2272 111.883 24.1868 112.598 24.9018C113.314 25.6168 114.274 26.034 115.285 26.0693L116.589 26.1359V10.4573C116.59 8.33427 115.943 6.26147 114.736 4.51484C113.529 2.7682 111.819 1.43056 109.833 0.67995C107.847 -0.0706612 105.68 -0.198644 103.619 0.313037C101.559 0.824717 99.7028 1.95179 98.2987 3.54426C96.6183 1.63701 94.3003 0.407594 91.7787 0.0861322C89.2572 -0.23533 86.7049 0.373204 84.5997 1.79782C83.5827 0.668845 81.3066 0.00598817 79.999 0.00598817V26.1359L81.3066 26.0693C83.4888 25.9271 85.0749 24.3864 85.1596 22.2163L85.2262 20.9087V11.7649L85.2928 10.4573C85.3473 9.47668 85.4835 8.60498 85.9314 7.83316C86.3911 7.04154 87.0505 6.3845 87.8439 5.92778C88.6372 5.47106 89.5365 5.23068 90.4519 5.23068C91.3673 5.23068 92.2666 5.47106 93.0599 5.92778C93.8532 6.3845 94.5127 7.04154 94.9723 7.83316L94.9814 7.83618Z" fill="#0B5CFF"/>
</svg>
